<svg version="1.1" viewBox="0 0 210.469 143.906" width="150" height="150" xmlns="http://www.w3.org/2000/svg"><path d="M46.054 44.179h6.094l0.351 0.469 0.586 1.407 1.289 2.813 2.11 4.804L60 61.407l1.875 4.219 2.11 4.688 1.407 3.281v0.469h-5.859l-0.586 -0.938 -1.054 -2.344 -0.938 -2.11 -0.117 -0.117H41.25l-1.054 2.227 -1.407 3.047 -0.234 0.234H32.695l-0.117 -0.234 1.054 -2.227 1.289 -2.929 2.344 -5.274 1.289 -2.813 1.524 -3.398 1.054 -2.344 1.407 -3.164 1.758 -3.867 1.289 -2.929zm2.929 6.446 -0.821 1.641 -1.875 4.336 -1.524 3.515 -1.172 2.813v0.234h10.899l-0.117 -0.586 -0.703 -1.758 -1.172 -2.696 -1.875 -4.336 -1.289 -2.929 -0.117 -0.234z" fill="#80C6E9"/><path d="M105.82 44.179h6.211l0.938 1.875 1.524 3.398 1.407 3.164 2.11 4.688 1.758 3.867 2.11 4.688 1.524 3.398 1.172 2.696 0.821 1.758v0.234l-0.351 0.117h-5.625l-0.586 -0.938 -1.289 -2.929 -0.821 -1.641h-15.587l-0.821 1.641 -1.407 3.164 -0.351 0.586 -0.234 0.117h-5.742l0.117 -0.586 1.641 -3.75 3.047 -6.797 1.758 -3.867 1.054 -2.344 1.875 -4.219 1.524 -3.398zm3.047 6.446L107.93 52.5l-1.758 4.101 -1.289 2.929 -1.407 3.398v0.234h10.899l-0.117 -0.586 -1.289 -3.164 -1.407 -3.164 -1.758 -4.101 -0.703 -1.407z" fill="#80C6E9"/><path d="M179.063 44.179h5.039l0.234 0.469v16.407l0.117 1.875 0.469 1.992 0.821 1.641 1.054 1.172 1.172 0.821 1.407 0.586 1.875 0.351h1.524l1.875 -0.351 1.407 -0.586 1.172 -0.938 1.054 -1.407 0.703 -1.992 0.351 -2.461 0.117 -17.578h5.274l0.234 0.117v17.695l-0.234 2.578 -0.586 2.227 -0.821 1.875 -0.821 1.289 -1.289 1.407 -1.054 0.938 -1.641 0.938 -1.289 0.586 -2.11 0.586 -2.929 0.351 -1.992 -0.117 -1.992 -0.351 -2.11 -0.703 -1.641 -0.821 -1.524 -1.172 -1.289 -1.289 -1.054 -1.524 -0.821 -1.641 -0.703 -2.11 -0.234 -1.289 -0.117 -2.227V45.234l0.117 -0.938z" fill="#80C6E9"/><path d="M152.344 44.179h22.735l0.234 0.351v1.758l-0.351 0.821 -1.524 2.227 -1.407 1.992 -1.054 1.524 -1.524 2.11 -1.054 1.524 -4.219 5.976 -2.344 3.281 -1.524 2.227 -0.469 0.821h15.351l0.117 5.039 -0.586 0.234h-22.383l-0.469 -0.117 -0.117 -0.351v-2.344l0.351 -0.821 1.524 -2.11 1.875 -2.696 1.172 -1.641 1.524 -2.227 1.172 -1.524 1.289 -1.875 2.344 -3.281 1.524 -2.11 1.524 -2.227 0.586 -0.938 0.117 -0.351h-14.414l-0.117 -0.117v-4.804z" fill="#80C6E9"/><path d="M61.407 44.179h6.094l0.586 1.172 2.11 5.508 1.641 4.219 1.875 4.804 1.758 4.571 1.054 2.578h0.234l0.821 -2.227 1.992 -5.157 0.938 -2.344 2.344 -6.094 1.524 -3.867 1.172 -3.047 0.117 -0.117h6.211l-0.117 0.586 -2.11 5.157 -1.407 3.398 -1.289 3.164 -1.289 3.047 -1.992 4.804 -1.875 4.571 -1.758 4.219 -0.469 0.938 -0.117 0.117h-5.742l-0.703 -1.407 -2.227 -5.391 -1.875 -4.571 -4.101 -9.844 -3.047 -7.5 -0.351 -0.821z" fill="#80C6E9"/><path d="M15.703 44.179h14.531l0.117 0.351 -0.117 18.164 -0.351 2.344 -0.703 2.11 -0.938 1.875 -1.172 1.524 -1.289 1.289 -1.172 0.821 -1.407 0.821 -1.758 0.586 -1.992 0.469 -1.407 0.117h-2.578l-2.227 -0.351 -1.992 -0.586 -1.992 -1.054 -1.172 -0.938 -0.703 -0.586 -1.054 -1.289 -0.938 -1.641 -0.586 -1.289 -0.586 -1.875 -0.234 -1.875v-1.524H9.375l0.234 1.172 0.469 2.227 0.938 1.875 0.821 0.821 1.172 0.703 1.054 0.469 1.172 0.234 1.172 0.117h1.289l1.641 -0.234 1.407 -0.469 1.289 -0.821 0.821 -0.821 0.938 -1.641 0.586 -1.758 0.117 -0.703v-13.36H16.172l-0.586 -0.117V44.297z" fill="#80C6E9"/><path d="M127.734 44.179h5.391l0.117 0.117v24.61h15.351l0.117 0.117v4.922l-9.492 0.117h-11.485l-0.117 -0.117V44.297z" fill="#80C6E9"/><path d="m133.946 83.32 0.586 0.117 0.469 1.172 1.289 3.867 0.234 -0.351 1.407 -4.336 0.234 -0.351h1.289l-0.117 0.821 -1.875 5.274 -0.586 1.054 -0.117 0.117h-0.703l-0.469 -0.586 -1.289 -3.515 -0.117 -0.234 -1.054 2.813 -0.821 1.524 -0.469 0.117 -0.703 -0.821 -0.938 -2.461 -0.938 -2.578 -0.469 -1.172v-0.351h1.407l0.351 0.938 1.289 3.867 0.234 0.117 0.351 -1.172 1.172 -3.281z" fill="#80C6E9"/><path d="M147.071 83.438h3.515l1.289 0.234 0.586 0.586 0.351 0.821 -0.117 1.054 -0.351 0.586 0.117 0.469 0.469 0.703 0.117 0.821 -0.351 1.054 -0.469 0.586 -0.586 0.234 -0.703 0.117h-3.867l-0.117 -1.054v-5.859zm1.289 1.172 -0.117 0.117v1.641h3.047l0.117 -0.117v-1.407l-0.117 -0.117 -1.407 -0.117zm-0.117 3.047v1.758l0.469 0.117h1.172l1.407 -0.117 0.351 -0.351v-0.938l-0.351 -0.469z" fill="#80C6E9"/><path d="M91.641 83.438h3.633l1.172 0.234 0.821 0.703 0.351 0.821v1.407l-0.351 0.703 -0.821 0.703 -0.234 0.117 0.234 0.586 1.289 1.524 0.117 0.469h-1.054l-0.586 -0.351 -1.758 -1.875 -0.234 -0.117h-1.172l-0.117 1.407v0.821l-0.117 0.117h-0.938l-0.117 -0.117 -0.117 -1.992zm1.289 1.289 -0.117 1.758 0.234 0.586h2.461l0.703 -0.351 0.234 -0.821 -0.351 -0.821 -0.351 -0.351z" fill="#80C6E9"/><path d="M84.609 83.438h3.398l1.524 0.234 0.821 0.938 0.234 0.938v0.821l-0.351 0.821 -0.586 0.703 -0.469 0.351 0.117 0.469 1.407 1.407 0.234 0.586h-1.054l-0.586 -0.234 -0.938 -0.938 -0.821 -0.938 -0.469 -0.234h-1.172v2.227l-0.117 0.117h-0.938l-0.117 -0.117 -0.117 -3.75zm1.289 1.289 -0.117 0.703v1.407l0.117 0.234h2.696l0.586 -0.351 0.234 -0.821 -0.234 -0.821 -0.469 -0.351z" fill="#80C6E9"/><path d="M55.664 83.438h2.813l1.524 0.234 0.821 0.469 0.821 0.938 0.351 1.054v1.875l-0.469 1.172 -0.938 0.938 -0.703 0.351 -1.758 0.234h-2.227l-0.234 -0.351zm1.289 1.289v4.688h1.992l0.938 -0.351 0.703 -0.821 0.117 -0.351v-1.758l-0.351 -0.703 -0.703 -0.586 -0.351 -0.117z" fill="#80C6E9"/><path d="M63.047 83.438h5.508l-0.117 1.289 -0.469 0.117 -3.633 -0.117v1.758h3.985l0.117 1.054 -0.117 0.117h-3.985l0.117 1.641 3.985 0.117 0.117 1.054 -0.234 0.234h-5.157l-0.117 -0.234z" fill="#80C6E9"/><path d="M140.508 83.438h5.391v1.172l-0.117 0.117h-3.985v1.641l3.985 0.117v1.172l-3.985 0.117v1.289l0.117 0.234 3.867 0.117 0.117 0.117v1.054l-0.117 0.117h-5.157l-0.117 -0.117z" fill="#80C6E9"/><path d="M121.758 83.32h0.938l1.407 0.351 0.938 0.821 0.586 0.821 0.351 1.172v1.054l-0.351 1.172 -0.703 1.054 -0.938 0.703 -0.703 0.234h-2.227l-0.821 -0.351 -0.938 -0.821 -0.586 -1.172 -0.117 -0.586v-1.407l0.469 -1.289 0.586 -0.821 0.821 -0.586 0.586 -0.234zm0.351 1.172 -0.938 0.234 -0.703 0.469 -0.351 0.469 -0.234 0.703v1.407l0.351 0.938 0.821 0.703 0.703 0.234h1.054l0.821 -0.351 0.586 -0.586 0.351 -0.703v-1.875l-0.351 -0.703 -0.821 -0.703 -0.821 -0.234z" fill="#80C6E9"/><path d="m101.719 83.32 1.875 0.234 0.821 0.469 0.821 0.938 0.469 1.172v1.875l-0.469 1.172 -0.821 0.938 -0.821 0.469 -0.469 0.117h-2.11l-0.821 -0.234 -1.054 -0.938 -0.586 -1.172 -0.117 -0.351v-1.641l0.469 -1.289 0.703 -0.938 0.938 -0.586zm0 1.172 -1.054 0.351 -0.703 0.821 -0.234 0.586v1.641l0.469 0.938 0.703 0.586 0.586 0.234h1.289l0.703 -0.351 0.586 -0.586 0.351 -0.821v-1.758l-0.351 -0.703 -0.821 -0.703 -0.703 -0.234z" fill="#80C6E9"/><path d="M79.57 83.32h0.821l0.469 0.351 1.289 2.929 1.524 3.515v0.586h-0.821l-0.586 -0.586 -0.469 -0.703 -3.867 -0.117 -0.234 0.703 -0.469 0.703h-1.054l-0.117 -0.234 1.054 -2.461 0.821 -1.758 1.054 -2.344zm0.234 1.875 -0.821 1.641 -0.351 0.938v0.351h2.696l-0.703 -1.992 -0.586 -0.938z" fill="#80C6E9"/><path d="M71.836 83.203h1.524l1.054 0.351 0.703 0.703v0.586l-0.469 0.234 -0.586 -0.117 -0.703 -0.351 -0.469 -0.117h-1.172l-0.586 0.469v0.703l0.469 0.351 2.813 0.703 0.938 0.703 0.234 1.172 -0.234 0.938 -0.469 0.703 -0.938 0.469 -0.586 0.117h-1.641l-1.054 -0.234 -0.703 -0.469 -0.351 -0.586 0.117 -0.586 0.234 -0.234h0.586l0.821 0.703 0.938 0.234h0.821l0.703 -0.351 0.351 -0.469 -0.117 -0.703 -0.469 -0.351 -2.578 -0.469 -0.703 -0.469 -0.469 -0.821v-1.289l0.469 -0.703 0.703 -0.586z" fill="#80C6E9"/><path d="M112.969 83.438h1.289l0.117 0.117v5.859h3.515l0.234 0.703 -0.117 0.469 -0.117 0.117h-4.688l-0.117 -0.117 -0.117 -0.821z" fill="#80C6E9"/><path d="M106.875 83.438h1.172l0.117 0.117 0.117 5.859 3.633 0.117v1.054l-0.117 0.117h-4.688l-0.234 -0.351z" fill="#80C6E9"/></svg>